<svg xmlns="http://www.w3.org/2000/svg" width="247.478" height="43.971" viewBox="0 0 247.478 43.971">
  <g id="Group_10486" data-name="Group 10486" transform="translate(814.348 -3346.633)">
    <g id="Group_10483" data-name="Group 10483" transform="translate(-761.714 3346.633)">
      <rect id="Rectangle_27542" data-name="Rectangle 27542" width="5.61" height="12.648" transform="translate(0 1.387)" fill="#fff"/>
      <path id="Path_2241" data-name="Path 2241" d="M-710.232,3409.69v-7.032h-5.61v12.647h31.183v-5.616Z" transform="translate(715.842 -3372.722)" fill="#fff"/>
      <path id="Path_2242" data-name="Path 2242" d="M-631.448,3346.633a22.013,22.013,0,0,1,22.043,21.927,22,22,0,0,1-22.043,22.043,21.975,21.975,0,0,1-21.927-22.043A21.988,21.988,0,0,1-631.448,3346.633Zm0,5.612a16.37,16.37,0,0,0-16.315,16.315,16.4,16.4,0,0,0,16.315,16.43,16.419,16.419,0,0,0,16.431-16.43A16.4,16.4,0,0,0-631.448,3352.245Z" transform="translate(686.753 -3346.633)" fill="#fff"/>
      <path id="Path_2243" data-name="Path 2243" d="M-560.432,3379.032c5.728,3.934,11.109,5.843,15.737,5.843,6.827,0,10.76-3.182,10.76-6.017,0-9.488-29.506-5.843-29.506-20.25,0-7.521,7.463-11.976,15.91-11.976,5.554,0,11.571,1.909,17.7,5.844l-3.124,4.8c-5.207-3.3-10.646-5.033-15.1-5.033-6.306,0-9.777,3.124-9.777,6.191,0,8.5,29.506,5.091,29.506,20.307,0,6.364-6.306,11.86-16.6,11.86-5.728,0-12.15-2.2-18.8-6.6Z" transform="translate(645.008 -3346.633)" fill="#fff"/>
      <path id="Path_2244" data-name="Path 2244" d="M-485.667,3349.232h31.3v5.669h-25.687v12.034h18.8v5.612h-18.8v12.266h25.687v5.611h-31.3Z" transform="translate(608.657 -3347.843)" fill="#fff"/>
      <path id="Path_2245" data-name="Path 2245" d="M-414.21,3349.232h17.877c8.678,0,15.795,6.769,15.795,15.1a15.184,15.184,0,0,1-8.736,13.48l8.736,12.612h-6.943l-7.637-11.108a5.585,5.585,0,0,1-.983.058h-12.5v11.05h-5.612Zm17.877,24.762a9.947,9.947,0,0,0,10.183-9.662,10.024,10.024,0,0,0-10.183-9.662H-408.6v19.324Z" transform="translate(575.381 -3347.843)" fill="#fff"/>
    </g>
    <g id="Group_10484" data-name="Group 10484" transform="translate(-814.348 3346.634)">
      <path id="Path_2246" data-name="Path 2246" d="M-775.892,3371.267h5.354a21.988,21.988,0,0,1-21.827,19.337,21.984,21.984,0,0,1-21.982-21.988,21.983,21.983,0,0,1,21.982-21.982,21.988,21.988,0,0,1,21.827,19.332h-5.354a16.711,16.711,0,0,0-16.473-14.031,16.7,16.7,0,0,0-16.682,16.682,16.7,16.7,0,0,0,16.682,16.687A16.711,16.711,0,0,0-775.892,3371.267Z" transform="translate(814.348 -3346.634)" fill="#f79420"/>
      <path id="Path_2247" data-name="Path 2247" d="M-783.127,3383.936a6.077,6.077,0,0,1-5.466-3.43,5.966,5.966,0,0,1-.615-2.65,5.966,5.966,0,0,1,.615-2.65,6.087,6.087,0,0,1,5.466-3.43,6.075,6.075,0,0,1,5.466,3.43h5.6a11.391,11.391,0,0,0-11.066-8.731,11.4,11.4,0,0,0-11.381,11.381,11.4,11.4,0,0,0,11.381,11.386,11.391,11.391,0,0,0,11.066-8.736h-5.6A6.065,6.065,0,0,1-783.127,3383.936Z" transform="translate(805.109 -3355.873)" fill="#f79420"/>
      <path id="Path_2248" data-name="Path 2248" d="M-775.513,3388.117a2.684,2.684,0,0,1-2.647-2.65,2.686,2.686,0,0,1,2.647-2.652,2.686,2.686,0,0,1,2.647,2.652A2.684,2.684,0,0,1-775.513,3388.117Z" transform="translate(797.496 -3363.482)" fill="#f79420"/>
      <rect id="Rectangle_27543" data-name="Rectangle 27543" width="5.61" height="5.301" rx="2.65" transform="translate(52.635 19.334)" fill="#f79420"/>
      <path id="Path_2249" data-name="Path 2249" d="M-614.537,3388.117a2.684,2.684,0,0,1-2.647-2.65,2.686,2.686,0,0,1,2.647-2.652,2.686,2.686,0,0,1,2.647,2.652A2.684,2.684,0,0,1-614.537,3388.117Z" transform="translate(722.535 -3363.482)" fill="#f79420"/>
      <rect id="Rectangle_27544" data-name="Rectangle 27544" width="5.301" height="5.302" rx="2.651" transform="translate(63.545 19.333)" fill="#f79420"/>
      <rect id="Rectangle_27545" data-name="Rectangle 27545" width="5.301" height="5.302" rx="2.651" transform="translate(74.147 19.333)" fill="#f79420"/>
    </g>
  </g>
</svg>
