<svg xmlns="http://www.w3.org/2000/svg" width="135.832" height="135.832" viewBox="0 0 135.832 135.832">
  <g id="Group_7465" data-name="Group 7465" transform="translate(-176.07 -1439.824)">
    <g id="Polygon_2" data-name="Polygon 2" transform="translate(176.07 1439.824)" fill="#f6f8fc">
      <path d="M 95.4730224609375 134.4442749023438 L 68.35099029541016 121.3486022949219 L 67.91617584228516 121.1386566162109 L 67.48136138916016 121.3486022949219 L 40.35931396484375 134.4442749023438 L 30.44119453430176 106.0060729980469 L 30.28219413757324 105.550163269043 L 29.82628440856934 105.3911666870117 L 1.388084292411804 95.47303009033203 L 14.4837760925293 68.35099792480469 L 14.69372177124023 67.91618347167969 L 14.4837760925293 67.48136901855469 L 1.388101935386658 40.35934066772461 L 29.82630348205566 30.44120216369629 L 30.28221130371094 30.28220176696777 L 30.44121170043945 29.82629203796387 L 40.35933303833008 1.388091683387756 L 67.48136138916016 14.48376560211182 L 67.91617584228516 14.69371032714844 L 68.35099029541016 14.48376560211182 L 95.4730224609375 1.388091444969177 L 105.3911590576172 29.82629203796387 L 105.5501556396484 30.28220176696777 L 106.0060653686523 30.44120216369629 L 134.4442749023438 40.35934066772461 L 121.3485794067383 67.48136901855469 L 121.1386337280273 67.91618347167969 L 121.3485794067383 68.35099792480469 L 134.4442443847656 95.47303009033203 L 106.0060653686523 105.3911666870117 L 105.5501556396484 105.550163269043 L 105.3911590576172 106.0060729980469 L 95.4730224609375 134.4442749023438 Z" stroke="none"/>
      <path d="M 40.93428039550781 2.776168823242188 L 31.06741333007812 31.06742095947266 L 2.77618408203125 40.93430328369141 L 15.80417633056641 67.91618347167969 L 2.776153564453125 94.89804077148438 L 31.06741333007812 104.7649230957031 L 40.93428039550781 133.0561981201172 L 67.91617584228516 120.0281829833984 L 94.89803314208984 133.0561981201172 L 104.7649154663086 104.7649459838867 L 133.0561676025391 94.89805603027344 L 120.0281524658203 67.91618347167969 L 133.0561981201172 40.93430328369141 L 104.7649154663086 31.06742095947266 L 94.89805603027344 2.776168823242188 L 67.91617584228516 15.80418395996094 L 40.93428039550781 2.776168823242188 M 39.78435516357422 0 L 67.91617584228516 13.58324432373047 L 96.0479736328125 0 L 106.3353576660156 29.49698638916016 L 135.8323516845703 39.78438568115234 L 122.2490997314453 67.91618347167969 L 135.8323364257812 96.04798889160156 L 106.3353576660156 106.3353881835938 L 96.04795837402344 135.8323669433594 L 67.91617584228516 122.2491226196289 L 39.78435516357422 135.8323669433594 L 29.49697875976562 106.3353652954102 L 0 96.04795837402344 L 13.58323669433594 67.91618347167969 L 1.52587890625e-05 39.78438568115234 L 29.49697875976562 29.49698638916016 L 39.78435516357422 0 Z" stroke="none" fill="#e23c11"/>
    </g>
    <path id="percent_FILL0_wght400_GRAD0_opsz48" d="M19.287,30.574a10.88,10.88,0,0,1-7.988-3.3A10.88,10.88,0,0,1,8,19.287,10.88,10.88,0,0,1,11.3,11.3,10.88,10.88,0,0,1,19.287,8a10.88,10.88,0,0,1,7.988,3.3,10.88,10.88,0,0,1,3.3,7.988,10.88,10.88,0,0,1-3.3,7.988A10.88,10.88,0,0,1,19.287,30.574Zm0-5.209a6.077,6.077,0,0,0,6.078-6.078,6.077,6.077,0,0,0-6.078-6.078,6.077,6.077,0,0,0-6.078,6.078,6.077,6.077,0,0,0,6.078,6.078Zm32.993,38.2A11.265,11.265,0,0,1,40.993,52.281,11.265,11.265,0,0,1,52.281,40.993,11.265,11.265,0,0,1,63.568,52.281,11.265,11.265,0,0,1,52.281,63.568Zm0-5.209a6.077,6.077,0,1,0-4.3-1.78A5.856,5.856,0,0,0,52.281,58.358ZM11.647,63.568,8,59.921,59.921,8l3.647,3.647Z" transform="translate(208.202 1471.956)" fill="#f79420"/>
  </g>
</svg>
