<svg xmlns="http://www.w3.org/2000/svg" xmlns:xlink="http://www.w3.org/1999/xlink" width="630" height="630" viewBox="0 0 630 630">
  <defs>
    <filter id="Ellipse_315" x="0" y="0" width="630" height="630" filterUnits="userSpaceOnUse">
      <feOffset dy="40" input="SourceAlpha"/>
      <feGaussianBlur stdDeviation="40" result="blur"/>
      <feFlood flood-opacity="0.161"/>
      <feComposite operator="in" in2="blur"/>
      <feComposite in="SourceGraphic"/>
    </filter>
  </defs>
  <g id="Group_10501" data-name="Group 10501" transform="translate(-248 -385)">
    <g transform="matrix(1, 0, 0, 1, 248, 385)" filter="url(#Ellipse_315)">
      <circle id="Ellipse_315-2" data-name="Ellipse 315" cx="195" cy="195" r="195" transform="translate(120 80)" fill="#fcfbf9"/>
    </g>
    <g id="Group_10481" data-name="Group 10481" transform="translate(3116.913 -4.385)">
      <path id="Path_2232" data-name="Path 2232" d="M-2446.928,681.578h34.769A142.792,142.792,0,0,1-2553.91,807.159a142.769,142.769,0,0,1-142.758-142.792A142.761,142.761,0,0,1-2553.91,521.61a142.791,142.791,0,0,1,141.751,125.545h-34.769a108.525,108.525,0,0,0-106.982-91.123,108.48,108.48,0,0,0-108.335,108.336,108.487,108.487,0,0,0,108.335,108.37A108.525,108.525,0,0,0-2446.928,681.578Z" transform="translate(0)" fill="#e23c11"/>
      <path id="Path_2233" data-name="Path 2233" d="M-2584.259,673.507a39.468,39.468,0,0,1-35.5-22.277,38.742,38.742,0,0,1-3.992-17.211,38.75,38.75,0,0,1,3.992-17.213,39.528,39.528,0,0,1,35.5-22.277,39.45,39.45,0,0,1,35.5,22.277h36.366a73.979,73.979,0,0,0-71.864-56.7,74.017,74.017,0,0,0-73.912,73.912,74.024,74.024,0,0,0,73.912,73.946,73.973,73.973,0,0,0,71.864-56.735h-36.366A39.391,39.391,0,0,1-2584.259,673.507Z" transform="translate(30.348 30.349)" fill="#e23c11"/>
      <path id="Path_2234" data-name="Path 2234" d="M-2609.259,626.243a17.43,17.43,0,0,1-17.191-17.209,17.439,17.439,0,0,1,17.191-17.218,17.44,17.44,0,0,1,17.191,17.218A17.431,17.431,0,0,1-2609.259,626.243Z" transform="translate(55.356 55.346)" fill="#e23c11"/>
    </g>
  </g>
</svg>
